<?xml version="1.0"?>
<svg xmlns="http://www.w3.org/2000/svg" xmlns:xlink="http://www.w3.org/1999/xlink" viewBox="0 0 512 512" width="512" height="512"><defs><linearGradient id="linear-gradient" x1="61.273" y1="443.821" x2="418.346" y2="86.749" gradientUnits="userSpaceOnUse"><stop offset="0" stop-color="#ffb1b4"/><stop offset="0.033" stop-color="#f587a1"/><stop offset="1" stop-color="#f5b02e"/></linearGradient></defs><g id="gradient"><path d="M120,216a80.189,80.189,0,0,0,.93,12.152A103.951,103.951,0,0,0,232,399.98v4.9a214.822,214.822,0,0,1-15.43,80.148A8,8,0,0,0,224,496h64a8,8,0,0,0,7.43-10.973A214.822,214.822,0,0,1,280,404.879v-4.9A103.948,103.948,0,0,0,391.07,228.152a79.987,79.987,0,0,0-63.09-90.539c.012-.535.02-1.074.02-1.613a72,72,0,0,0-144,0c0,.539.008,1.078.02,1.613A79.7,79.7,0,0,0,120,216ZM235.5,480A230.635,230.635,0,0,0,248,404.879V336a8,8,0,0,0-1.6-4.8l-28.022-37.365a40.052,40.052,0,0,0,6.813-7.542L249.754,317A7.993,7.993,0,0,0,256,320c.18,0,.355-.008.535-.02a8,8,0,0,0,6.324-3.863l19.214-32.02a39.781,39.781,0,0,0,8.121,14.314L265.6,331.2A8,8,0,0,0,264,336v68.879A230.635,230.635,0,0,0,276.5,480ZM192,288a24,24,0,1,1,24-24A24.027,24.027,0,0,1,192,288Zm104-16a24,24,0,1,1,24,24A24.027,24.027,0,0,1,296,272Zm-15.168-8.108c-.269.009-.567.108-.832.108a24,24,0,1,1,23.535-28.357A40.084,40.084,0,0,0,280.832,263.892ZM193.445,152.359a8,8,0,0,0,7.114-9.1A49.728,49.728,0,0,1,200,136a56,56,0,0,1,112,0,49.728,49.728,0,0,1-.559,7.258,8,8,0,0,0,7.114,9.1A63.743,63.743,0,0,1,376,216a64.484,64.484,0,0,1-1.426,13.449,8,8,0,0,0,2.621,7.75A87.829,87.829,0,0,1,280,382.17v-43.5l22.966-30.621A39.541,39.541,0,0,0,320,312a40,40,0,0,0,0-80c-.274,0-.528.076-.8.081a39.978,39.978,0,1,0-51.961,45.639l-12.179,20.3-23.525-29.407A39.207,39.207,0,0,0,232,264a40,40,0,1,0-40,40,39.484,39.484,0,0,0,12.381-2.161L232,338.668v43.5A87.861,87.861,0,0,1,134.805,237.2a8,8,0,0,0,2.621-7.75A64.484,64.484,0,0,1,136,216,63.743,63.743,0,0,1,193.445,152.359Zm238.692,18.258a33.748,33.748,0,0,0,43.883,19l13.191-5.219a8,8,0,0,0,4.5-10.379l-5.219-13.195a33.85,33.85,0,0,0-43.886-19l-13.188,5.219a8,8,0,0,0-4.492,10.379Zm18.351-13.91a17.829,17.829,0,0,1,23.125,10.008l2.274,5.754-5.754,2.277a17.814,17.814,0,0,1-23.117-10.012l-2.274-5.754Zm26.633,264.086a33.625,33.625,0,0,0-25.875-.191L438.1,425.93a8,8,0,0,0-4.411,10.422l5.332,13.14a33.759,33.759,0,0,0,44.047,18.633l13.145-5.332a8,8,0,0,0,4.406-10.422l-5.332-13.144A33.6,33.6,0,0,0,477.121,420.793Zm-.066,32.5a17.811,17.811,0,0,1-23.2-9.817l-2.325-5.73,5.731-2.32a17.815,17.815,0,0,1,23.2,9.812l2.324,5.731ZM103.414,472c1.063,0,2.141-.051,3.219-.152l14.121-1.34a8,8,0,0,0,7.211-8.719l-1.34-14.125A33.821,33.821,0,0,0,89.762,417.2l-14.121,1.344a8,8,0,0,0-7.207,8.719l1.339,14.125A33.862,33.862,0,0,0,103.414,472ZM91.277,433.125A17.816,17.816,0,0,1,110.7,449.176l.586,6.16-6.16.582A17.875,17.875,0,0,1,85.7,439.871l-.586-6.16ZM376.562,117.133a8,8,0,0,1,14.876-5.891l.5,1.274a46.516,46.516,0,0,0,17.079,21.367A8,8,0,1,1,400,147.094a62.423,62.423,0,0,1-22.93-28.688ZM58.156,397.387a8,8,0,1,1-11.937,10.648,57.39,57.39,0,0,1-13.938-29.594l-.191-1.234a8,8,0,0,1,15.82-2.414l.188,1.23A41.405,41.405,0,0,0,58.156,397.387Zm359.27,23.59a8,8,0,0,1-9.149,13.125,57.374,57.374,0,0,1-20.414-25.567l-.465-1.144a8,8,0,0,1,14.821-6.032l.469,1.153A41.411,41.411,0,0,0,417.426,420.977Zm34.5-112.934a8,8,0,0,1,13.8-8.086l.628,1.074a41.408,41.408,0,0,0,17.231,16.157,8,8,0,0,1-7.172,14.3,57.331,57.331,0,0,1-23.867-22.379Zm-392-136a8,8,0,0,1,13.805-8.086l.628,1.074a41.408,41.408,0,0,0,17.231,16.157,8,8,0,0,1-7.172,14.3,57.331,57.331,0,0,1-23.867-22.379ZM73.816,77.125A33.763,33.763,0,0,0,117.863,95.75l13.145-5.332A8,8,0,0,0,135.414,80l-5.332-13.144A33.82,33.82,0,0,0,86.035,48.227L72.891,53.559A8,8,0,0,0,68.484,63.98Zm18.235-14.07a17.815,17.815,0,0,1,23.2,9.812l2.324,5.731-5.73,2.324a17.817,17.817,0,0,1-23.2-9.813l-2.325-5.73ZM22.191,35.016a8,8,0,0,1,14.821-6.032l.468,1.153A41.42,41.42,0,0,0,52.219,48.6,8,8,0,0,1,43.07,61.727,57.336,57.336,0,0,1,22.656,36.156Zm115.8,255.269A47.906,47.906,0,0,0,136,304a8,8,0,0,1-16,0,64.087,64.087,0,0,1,2.652-18.285,8,8,0,1,1,15.336,4.57Zm4.86,38.445a47.969,47.969,0,0,0,27.437,21.286,8,8,0,1,1-4.57,15.336,63.946,63.946,0,0,1-36.57-28.364,8,8,0,0,1,13.7-8.258Zm220.535-4.164a8,8,0,1,1,14.453,6.868,64.12,64.12,0,0,1-39.555,33.914,8,8,0,1,1-4.562-15.336A48.092,48.092,0,0,0,363.383,324.566ZM325.656,426.344l16,16a8,8,0,1,1-11.312,11.312l-16-16a8,8,0,0,1,11.312-11.312ZM64,280a7.971,7.971,0,0,1-5.656-2.344l-16-16a8,8,0,0,1,11.312-11.312l16,16A8,8,0,0,1,64,280Zm114.344,53.656a8,8,0,0,1,11.312-11.312l16,16a8,8,0,1,1-11.312,11.312Zm8-144a8,8,0,0,1,11.312-11.312l16,16a8,8,0,1,1-11.312,11.312Zm48-56a8,8,0,0,1,11.312-11.312l16,16a8,8,0,1,1-11.312,11.312Zm72,48a8,8,0,0,1,11.312-11.312l16,16a8,8,0,1,1-11.312,11.312Zm16-136a8,8,0,0,1,11.312-11.312l16,16a8,8,0,1,1-11.312,11.312Z" style="fill:url(#linear-gradient)"/></g></svg>
